<?xml version="1.0" ?>
<!-- Uploaded to: SVG Repo, www.svgrepo.com, Generator: SVG Repo Mixer Tools -->
<svg width="800px" height="800px" viewBox="0 0 2050 2050" xmlns="http://www.w3.org/2000/svg">
<defs>
<style>.cls-1{fill:#ffffff;}.cls-2{fill:#ff4f4f;}.cls-3{fill:#00305f;}.cls-4{fill:#e33b3b;}</style>
</defs>
<title/>
<g data-name="Layer 1" id="Layer_1">
<rect class="cls-1" height="2040" width="2040" x="5" y="5"/>
</g>
<g data-name="Layer 3" id="Layer_3">
<path class="cls-2" d="M1594.2,497.2c-47.6,43.4-109.5,87.4-175.5,111.7a607.9,607.9,0,0,0-787.4,0c-66-24.3-127.9-68.3-175.5-111.7-63-57.4-68.5,165.6,45.7,265.6a605.3,605.3,0,0,0-84.6,309.5c0,335.8,272.3,608.1,608.1,608.1s608.1-272.3,608.1-608.1a605.3,605.3,0,0,0-84.6-309.5C1662.7,662.8,1657.2,439.8,1594.2,497.2Z"/>
<ellipse class="cls-3" cx="793.2" cy="1008.9" rx="94.9" ry="60.2" transform="translate(-249.1 1757.7) rotate(-87.5)"/>
<circle class="cls-1" cx="826.5" cy="1010.4" r="16.6"/>
<path class="cls-3" d="M881.2,1000.3a30.1,30.1,0,0,1-10.9-2.1L674.9,921.9a30,30,0,1,1,21.8-55.8l195.4,76.3a30,30,0,0,1-10.9,57.9Z"/>
<ellipse class="cls-3" cx="1256.8" cy="1008.9" rx="60.2" ry="94.9" transform="translate(-42.5 55.4) rotate(-2.5)"/>
<circle class="cls-1" cx="1223.5" cy="1010.4" r="16.6"/>
<path class="cls-3" d="M1168.8,1000.3a30,30,0,0,1-10.9-57.9l195.4-76.3a30,30,0,1,1,21.8,55.8l-195.4,76.3A30.1,30.1,0,0,1,1168.8,1000.3Z"/>
<path class="cls-4" d="M1025,1516.7c-275.9,0-511.8-171.2-607.3-413.1,16.3,321.3,282,576.8,607.3,576.8s591-255.5,607.3-576.8C1536.8,1345.5,1300.9,1516.7,1025,1516.7Z"/>
<path class="cls-4" d="M501.5,762.8c-7.6,12.8-14.8,26-21.4,39.4,35.2,9.8,76.2,14.8,76.2,14.8Z"/>
<path class="cls-4" d="M1548.5,762.8c7.6,12.8,14.8,26,21.4,39.4-35.2,9.8-76.2,14.8-76.2,14.8Z"/>
<path class="cls-3" d="M1136.7,1335a30,30,0,0,1-12-2.5c-67.1-29.4-132.3-29.4-199.4,0a30,30,0,0,1-24.1-55c82.1-36,165.5-36,247.6,0a30,30,0,0,1-12.1,57.5Z"/>
</g>
</svg>